<mxfile host="app.diagrams.net" modified="2023-10-13T07:34:06.728Z" agent="Mozilla/5.0 (Windows NT 10.0; Win64; x64) AppleWebKit/537.36 (KHTML, like Gecko) Chrome/118.0.0.0 Safari/537.36" version="22.0.4" etag="0dIi1iGlqmZQcslvAj1y" type="github">
  <diagram name="第 1 页" id="1mjFPD-Nzs_OTxHovNBN">
    <mxGraphModel>
      <root>
        <mxCell id="0" />
        <mxCell id="1" parent="0" />
      </root>
    </mxGraphModel>
  </diagram>
</mxfile>
